<svg xmlns="http://www.w3.org/2000/svg" version="1.1" xmlns:xlink="http://www.w3.org/1999/xlink" xmlns:svgjs="http://svgjs.dev/svgjs" width="2000" height="464" viewBox="0 0 2000 464"><g transform="matrix(1,0,0,1,-1.2121212121212466,-0.9907001428863111)"><svg viewBox="0 0 396 92" data-background-color="#ffffff" preserveAspectRatio="xMidYMid meet" height="464" width="2000" xmlns="http://www.w3.org/2000/svg" xmlns:xlink="http://www.w3.org/1999/xlink"><g id="tight-bounds" transform="matrix(1,0,0,1,0.2400000000000091,0.1964319248826314)"><svg viewBox="0 0 395.52 91.60713615023474" height="91.60713615023474" width="395.52"><g><svg viewBox="0 0 395.52 91.60713615023474" height="91.60713615023474" width="395.52"><g><svg viewBox="0 0 395.52 91.60713615023474" height="91.60713615023474" width="395.52"><g id="textblocktransform"><svg viewBox="0 0 395.52 91.60713615023474" height="91.60713615023474" width="395.52" id="textblock"><g><svg viewBox="0 0 395.52 91.60713615023474" height="91.60713615023474" width="395.52"><g transform="matrix(1,0,0,1,0,0)"><svg width="395.52" viewBox="2.54 -35.64 156 36.13" height="91.60713615023474" data-palette-color="#ffa458"><path d="M2.54-3.88L2.54-3.88Q2.66-4.1 2.75-4.55 2.83-5 2.87-5.55 2.91-6.1 2.92-6.68 2.93-7.25 2.93-7.69L2.93-7.69Q2.93-9.25 2.83-10.51 2.73-11.77 2.54-12.7L2.54-12.7Q3.78-12.5 5.07-12.41 6.35-12.33 7.67-12.33L7.67-12.33Q8.35-12.33 9.08-12.35 9.81-12.38 10.51-12.43 11.21-12.48 11.82-12.54 12.43-12.6 12.92-12.7L12.92-12.7Q12.92-8.98 14.32-7.18 15.72-5.37 18.43-5.37L18.43-5.37Q19.63-5.37 20.61-5.74 21.58-6.1 22.25-6.74 22.92-7.37 23.29-8.22 23.66-9.06 23.66-10.01L23.66-10.01Q23.66-11.23 23.24-12.13 22.83-13.04 22.09-13.62 21.36-14.21 20.36-14.5 19.36-14.79 18.19-14.79L18.19-14.79Q17.24-14.79 16.41-14.75 15.58-14.7 14.72-14.65L14.72-14.65Q14.87-15.21 14.99-15.93 15.11-16.65 15.11-17.41L15.11-17.41Q15.11-18.21 14.99-19.01 14.87-19.8 14.72-20.43L14.72-20.43Q15.89-20.36 17.29-20.36L17.29-20.36Q18.36-20.36 19.46-20.64 20.56-20.92 21.44-21.52 22.31-22.12 22.86-23.03 23.41-23.95 23.41-25.24L23.41-25.24Q23.41-27.34 22.36-28.56 21.31-29.79 18.92-29.79L18.92-29.79Q17.68-29.79 16.58-29.39 15.48-29 14.67-28.1 13.87-27.2 13.39-25.7 12.92-24.19 12.92-21.97L12.92-21.97Q11.01-22.34 8.2-22.34L8.2-22.34Q6.88-22.34 5.6-22.25 4.32-22.17 3.08-21.97L3.08-21.97Q3.22-22.75 3.33-24.13 3.44-25.51 3.44-27.34L3.44-27.34Q3.44-27.83 3.41-28.44 3.37-29.05 3.31-29.61 3.25-30.18 3.19-30.64 3.13-31.1 3.08-31.3L3.08-31.3Q4.96-31.3 6.47-31.74 7.98-32.18 9.12-32.81 10.25-33.45 11.04-34.16 11.82-34.86 12.26-35.4L12.26-35.4Q12.62-35.21 13.39-35.01 14.16-34.81 15.16-34.66 16.16-34.5 17.33-34.4 18.51-34.3 19.7-34.3L19.7-34.3Q20.8-34.3 21.9-34.4 23-34.5 23.96-34.66 24.93-34.81 25.66-35.01 26.39-35.21 26.76-35.4L26.76-35.4Q27.05-34.72 27.87-33.96 28.69-33.2 29.77-32.58 30.86-31.96 32.07-31.54 33.28-31.13 34.33-31.13L34.33-31.13Q34.18-30.86 34.03-30.3 33.89-29.74 33.78-29.04 33.67-28.34 33.61-27.58 33.54-26.81 33.54-26.12L33.54-26.12Q33.54-24.56 33.76-23.46 33.98-22.36 34.33-21.68L34.33-21.68Q33.15-21.26 31.74-20.48 30.32-19.7 29.13-18.41L29.13-18.41Q29.69-17.72 30.54-17.2 31.4-16.67 32.29-16.31 33.18-15.94 34.01-15.76 34.84-15.58 35.35-15.58L35.35-15.58Q35.18-15.31 35.06-14.71 34.94-14.11 34.85-13.37 34.77-12.62 34.73-11.83 34.69-11.04 34.69-10.38L34.69-10.38Q34.69-9.5 34.7-8.8 34.72-8.11 34.79-7.52 34.86-6.93 35-6.43 35.13-5.93 35.35-5.49L35.35-5.49Q34.69-5.49 33.87-5.24 33.06-4.98 32.19-4.55 31.32-4.13 30.46-3.55 29.59-2.98 28.85-2.34 28.1-1.71 27.51-1.04 26.93-0.37 26.64 0.24L26.64 0.24Q26.29 0.07 25.57-0.09 24.85-0.24 23.9-0.35 22.95-0.46 21.86-0.54 20.78-0.61 19.73-0.61L19.73-0.61Q18.55-0.61 17.31-0.55 16.06-0.49 14.95-0.38 13.84-0.27 12.99-0.11 12.13 0.05 11.74 0.24L11.74 0.24Q11.3-0.27 10.51-0.99 9.72-1.71 8.58-2.34 7.45-2.98 5.93-3.43 4.42-3.88 2.54-3.88ZM40.84-6.54L40.84-6.54Q41.06-7.06 41.28-7.9 41.5-8.74 41.68-9.8 41.87-10.86 41.98-12.07 42.09-13.28 42.09-14.5L42.09-14.5Q42.09-16.04 41.67-16.86 41.26-17.68 40.48-17.94L40.48-17.94Q40.92-18.07 41.23-18.51 41.55-18.95 41.77-19.58 41.99-20.21 42.09-20.98 42.19-21.75 42.19-22.56L42.19-22.56Q42.19-24.66 41.83-26.28 41.48-27.91 40.84-28.61L40.84-28.61 40.99-28.61Q41.67-28.61 42.5-28.98 43.33-29.35 44.16-29.94 44.99-30.54 45.79-31.29 46.58-32.03 47.2-32.81 47.82-33.59 48.23-34.34 48.63-35.08 48.68-35.64L48.68-35.64Q49.09-35.42 49.99-35.19 50.88-34.96 52.11-34.75 53.34-34.55 54.86-34.42 56.37-34.3 58.05-34.3L58.05-34.3Q59.74-34.3 61.25-34.42 62.77-34.55 64-34.75 65.23-34.96 66.12-35.19 67.01-35.42 67.43-35.64L67.43-35.64Q67.48-35.08 67.87-34.34 68.26-33.59 68.88-32.81 69.5-32.03 70.3-31.29 71.09-30.54 71.92-29.94 72.75-29.35 73.58-28.98 74.41-28.61 75.1-28.61L75.1-28.61 75.27-28.61Q74.63-27.91 74.28-26.28 73.92-24.66 73.92-22.56L73.92-22.56Q73.92-21.75 74.02-20.98 74.12-20.21 74.34-19.58 74.56-18.95 74.88-18.51 75.19-18.07 75.63-17.94L75.63-17.94Q74.85-17.68 74.44-16.86 74.02-16.04 74.02-14.5L74.02-14.5Q74.02-13.28 74.13-12.07 74.24-10.86 74.42-9.8 74.61-8.74 74.83-7.9 75.05-7.06 75.27-6.54L75.27-6.54Q74.19-6.4 72.95-5.71 71.7-5.03 70.58-4.03 69.46-3.03 68.63-1.84 67.8-0.66 67.58 0.49L67.58 0.49Q67.16 0.27 66.25 0.07 65.33-0.12 64.07-0.28 62.81-0.44 61.28-0.52 59.74-0.61 58.05-0.61L58.05-0.61Q56.37-0.61 54.83-0.52 53.29-0.44 52.02-0.28 50.75-0.12 49.85 0.07 48.95 0.27 48.53 0.49L48.53 0.49Q48.31-0.66 47.48-1.84 46.65-3.03 45.53-4.03 44.41-5.03 43.15-5.71 41.89-6.4 40.84-6.54ZM58.05-5.37L58.05-5.37Q59.37-5.37 60.47-5.85 61.57-6.32 62.36-7.63 63.16-8.94 63.6-11.22 64.04-13.5 64.04-17.14L64.04-17.14Q64.04-20 63.8-22.02 63.57-24.05 63.17-25.43 62.77-26.81 62.2-27.62 61.64-28.44 60.97-28.87 60.3-29.3 59.56-29.42 58.81-29.54 58.05-29.54L58.05-29.54Q57.27-29.54 56.54-29.42 55.81-29.3 55.14-28.87 54.47-28.44 53.9-27.62 53.34-26.81 52.94-25.43 52.54-24.05 52.3-22.02 52.07-20 52.07-17.14L52.07-17.14Q52.07-13.5 52.51-11.22 52.95-8.94 53.75-7.63 54.54-6.32 55.64-5.85 56.74-5.37 58.05-5.37ZM82.29-6.54L82.29-6.54Q82.51-7.06 82.73-7.9 82.95-8.74 83.14-9.8 83.32-10.86 83.43-12.07 83.54-13.28 83.54-14.5L83.54-14.5Q83.54-16.04 83.12-16.86 82.71-17.68 81.93-17.94L81.93-17.94Q82.37-18.07 82.69-18.51 83-18.95 83.22-19.58 83.44-20.21 83.54-20.98 83.64-21.75 83.64-22.56L83.64-22.56Q83.64-24.66 83.28-26.28 82.93-27.91 82.29-28.61L82.29-28.61 82.44-28.61Q83.12-28.61 83.95-28.98 84.79-29.35 85.62-29.94 86.45-30.54 87.24-31.29 88.03-32.03 88.65-32.81 89.28-33.59 89.68-34.34 90.08-35.08 90.13-35.64L90.13-35.64Q90.55-35.42 91.44-35.19 92.33-34.96 93.56-34.75 94.79-34.55 96.31-34.42 97.82-34.3 99.51-34.3L99.51-34.3Q101.19-34.3 102.7-34.42 104.22-34.55 105.45-34.75 106.68-34.96 107.58-35.19 108.47-35.42 108.88-35.64L108.88-35.64Q108.93-35.08 109.32-34.34 109.71-33.59 110.33-32.81 110.96-32.03 111.75-31.29 112.54-30.54 113.37-29.94 114.2-29.35 115.03-28.98 115.86-28.61 116.55-28.61L116.55-28.61 116.72-28.61Q116.08-27.91 115.73-26.28 115.38-24.66 115.38-22.56L115.38-22.56Q115.38-21.75 115.47-20.98 115.57-20.21 115.79-19.58 116.01-18.95 116.33-18.51 116.65-18.07 117.08-17.94L117.08-17.94Q116.3-17.68 115.89-16.86 115.47-16.04 115.47-14.5L115.47-14.5Q115.47-13.28 115.58-12.07 115.69-10.86 115.88-9.8 116.06-8.74 116.28-7.9 116.5-7.06 116.72-6.54L116.72-6.54Q115.64-6.4 114.4-5.71 113.15-5.03 112.03-4.03 110.91-3.03 110.08-1.84 109.25-0.66 109.03 0.49L109.03 0.49Q108.61 0.27 107.7 0.07 106.78-0.12 105.52-0.28 104.27-0.44 102.73-0.52 101.19-0.61 99.51-0.61L99.51-0.61Q97.82-0.61 96.28-0.52 94.75-0.44 93.48-0.28 92.21-0.12 91.3 0.07 90.4 0.27 89.99 0.49L89.99 0.49Q89.77-0.66 88.94-1.84 88.11-3.03 86.98-4.03 85.86-5.03 84.6-5.71 83.34-6.4 82.29-6.54ZM99.51-5.37L99.51-5.37Q100.83-5.37 101.92-5.85 103.02-6.32 103.82-7.63 104.61-8.94 105.05-11.22 105.49-13.5 105.49-17.14L105.49-17.14Q105.49-20 105.26-22.02 105.02-24.05 104.62-25.43 104.22-26.81 103.66-27.62 103.1-28.44 102.42-28.87 101.75-29.3 101.01-29.42 100.26-29.54 99.51-29.54L99.51-29.54Q98.73-29.54 97.99-29.42 97.26-29.3 96.59-28.87 95.92-28.44 95.36-27.62 94.79-26.81 94.39-25.43 93.99-24.05 93.76-22.02 93.53-20 93.53-17.14L93.53-17.14Q93.53-13.5 93.96-11.22 94.4-8.94 95.2-7.63 95.99-6.32 97.09-5.85 98.19-5.37 99.51-5.37ZM123.75-6.54L123.75-6.54Q123.97-7.06 124.19-7.9 124.41-8.74 124.59-9.8 124.77-10.86 124.88-12.07 124.99-13.28 124.99-14.5L124.99-14.5Q124.99-16.04 124.58-16.86 124.16-17.68 123.38-17.94L123.38-17.94Q123.82-18.07 124.14-18.51 124.46-18.95 124.68-19.58 124.89-20.21 124.99-20.98 125.09-21.75 125.09-22.56L125.09-22.56Q125.09-24.66 124.74-26.28 124.38-27.91 123.75-28.61L123.75-28.61 123.89-28.61Q124.58-28.61 125.41-28.98 126.24-29.35 127.07-29.94 127.9-30.54 128.69-31.29 129.48-32.03 130.11-32.81 130.73-33.59 131.13-34.34 131.54-35.08 131.58-35.64L131.58-35.64Q132-35.42 132.89-35.19 133.78-34.96 135.01-34.75 136.25-34.55 137.76-34.42 139.27-34.3 140.96-34.3L140.96-34.3Q142.64-34.3 144.16-34.42 145.67-34.55 146.9-34.75 148.14-34.96 149.03-35.19 149.92-35.42 150.33-35.64L150.33-35.64Q150.38-35.08 150.77-34.34 151.16-33.59 151.79-32.81 152.41-32.03 153.2-31.29 154-30.54 154.83-29.94 155.66-29.35 156.49-28.98 157.32-28.61 158-28.61L158-28.61 158.17-28.61Q157.54-27.91 157.18-26.28 156.83-24.66 156.83-22.56L156.83-22.56Q156.83-21.75 156.93-20.98 157.02-20.21 157.24-19.58 157.46-18.95 157.78-18.51 158.1-18.07 158.54-17.94L158.54-17.94Q157.76-17.68 157.34-16.86 156.93-16.04 156.93-14.5L156.93-14.5Q156.93-13.28 157.04-12.07 157.15-10.86 157.33-9.8 157.51-8.74 157.73-7.9 157.95-7.06 158.17-6.54L158.17-6.54Q157.1-6.4 155.85-5.71 154.61-5.03 153.48-4.03 152.36-3.03 151.53-1.84 150.7-0.66 150.48 0.49L150.48 0.49Q150.07 0.27 149.15 0.07 148.23-0.12 146.98-0.28 145.72-0.44 144.18-0.52 142.64-0.61 140.96-0.61L140.96-0.61Q139.27-0.61 137.74-0.52 136.2-0.44 134.93-0.28 133.66-0.12 132.76 0.07 131.85 0.27 131.44 0.49L131.44 0.49Q131.22-0.66 130.39-1.84 129.56-3.03 128.43-4.03 127.31-5.03 126.05-5.71 124.8-6.4 123.75-6.54ZM140.96-5.37L140.96-5.37Q142.28-5.37 143.38-5.85 144.47-6.32 145.27-7.63 146.06-8.94 146.5-11.22 146.94-13.5 146.94-17.14L146.94-17.14Q146.94-20 146.71-22.02 146.48-24.05 146.07-25.43 145.67-26.81 145.11-27.62 144.55-28.44 143.88-28.87 143.21-29.3 142.46-29.42 141.72-29.54 140.96-29.54L140.96-29.54Q140.18-29.54 139.45-29.42 138.71-29.3 138.04-28.87 137.37-28.44 136.81-27.62 136.25-26.81 135.84-25.43 135.44-24.05 135.21-22.02 134.98-20 134.98-17.14L134.98-17.14Q134.98-13.5 135.42-11.22 135.86-8.94 136.65-7.63 137.44-6.32 138.54-5.85 139.64-5.37 140.96-5.37Z" opacity="1" transform="matrix(1,0,0,1,0,0)" fill="#ffa458" class="wordmark-text-0" data-fill-palette-color="primary" id="text-0"></path></svg></g></svg></g></svg></g></svg></g><g></g></svg></g><defs></defs></svg><rect width="395.52" height="91.60713615023474" fill="none" stroke="none" visibility="hidden"></rect></g></svg></g></svg>